<?xml version="1.0" standalone="no"?>
<!DOCTYPE svg PUBLIC "-//W3C//DTD SVG 20010904//EN"
 "http://www.w3.org/TR/2001/REC-SVG-20010904/DTD/svg10.dtd">
<svg version="1.0" xmlns="http://www.w3.org/2000/svg"
 width="109.000000pt" height="110.000000pt" viewBox="0 0 109.000000 110.000000"
 preserveAspectRatio="xMidYMid meet">

<g transform="translate(0.000000,110.000000) scale(0.100000,-0.100000)"
fill="#000000" stroke="none">
<path d="M0 550 l0 -550 545 0 545 0 0 550 0 550 -545 0 -545 0 0 -550z m1050
300 l0 -210 -25 0 -25 0 0 185 0 185 -460 0 -460 0 0 -460 0 -460 215 0 c239
0 263 5 323 63 54 52 76 103 76 177 0 74 -22 125 -76 177 -50 48 -95 63 -193
63 l-85 0 0 -200 0 -200 -25 0 -25 0 0 225 0 225 321 0 c355 0 368 -2 412 -64
17 -24 22 -45 22 -92 0 -54 -4 -67 -32 -101 -28 -36 -30 -40 -14 -50 10 -6 25
-27 34 -46 35 -73 13 -159 -52 -203 l-36 -24 -457 0 -458 0 0 510 0 510 510 0
510 0 0 -210z"/>
<path d="M662 533 c110 -113 110 -293 0 -406 l-36 -37 158 0 158 0 29 29 c23
24 29 38 29 74 0 73 -53 117 -142 117 -21 0 -28 5 -28 20 0 16 7 20 35 20 47
0 98 22 119 51 9 13 16 43 16 67 0 35 -6 49 -29 73 l-29 29 -158 0 -158 0 36
-37z"/>
</g>
</svg>
